<?xml version="1.0" encoding="UTF-8"?>
<svg version="1.1" xmlns="http://www.w3.org/2000/svg" width="512" height="512">
<path d="M0 0 C0.8653974 -0.00445784 1.73079481 -0.00891569 2.62241638 -0.01350862 C4.0570179 -0.01323207 4.0570179 -0.01323207 5.52060127 -0.01294994 C7.03801263 -0.01846498 7.03801263 -0.01846498 8.58607876 -0.02409142 C11.99778051 -0.03516158 15.40945185 -0.03897771 18.8211689 -0.04278088 C21.25829351 -0.0490429 23.69541716 -0.05568947 26.13253975 -0.0626936 C33.46141209 -0.08194436 40.79027635 -0.09252444 48.11916655 -0.10142139 C51.56848121 -0.10580264 55.01779433 -0.11116982 58.46710777 -0.11641026 C69.92958126 -0.13342217 81.39205379 -0.14791755 92.85453796 -0.155159 C95.82974308 -0.15706896 98.80494819 -0.15898928 101.78015327 -0.16094494 C102.51964549 -0.16142868 103.25913771 -0.16191242 104.02103879 -0.16241082 C116.00719715 -0.17071569 127.99325587 -0.19606043 139.9793707 -0.22852562 C152.27851032 -0.26156779 164.57759924 -0.27960512 176.87678349 -0.28280324 C183.78511555 -0.28497084 190.69330223 -0.29375589 197.60159111 -0.31926441 C204.09730456 -0.34319387 210.59280286 -0.34681502 217.08856773 -0.33650303 C219.47670804 -0.33600537 221.86486086 -0.34239289 224.25296211 -0.35605907 C227.50541732 -0.37363482 230.7569166 -0.36674221 234.0093708 -0.35352612 C234.96131038 -0.36449536 235.91324995 -0.37546461 236.89403617 -0.38676625 C238.19995552 -0.37389492 238.19995552 -0.37389492 239.53225708 -0.36076355 C240.65840024 -0.36222876 240.65840024 -0.36222876 241.80729377 -0.36372358 C244.88681704 0.37184982 246.02713021 1.59877823 247.89196968 4.13422108 C248.39336634 7.20404816 248.39336634 7.20404816 248.39533424 10.89342213 C248.40114801 11.57556534 248.40696177 12.25770855 248.41295171 12.96052277 C248.42760565 15.25730315 248.41364244 17.55302382 248.39990425 19.84979725 C248.40451106 21.50857402 248.4108625 23.16734672 248.41881323 24.82611084 C248.43555998 29.39289416 248.42723602 33.95934449 248.41486835 38.52612925 C248.40584198 43.44781347 248.41977557 48.36943923 248.43078804 53.29111195 C248.4486037 62.93604895 248.44471973 72.58086167 248.43313748 82.22580361 C248.42411539 90.06226038 248.42287384 97.89868224 248.42723274 105.73514271 C248.42784567 106.84914108 248.42845861 107.96313944 248.42909011 109.11089534 C248.43036897 111.37374029 248.43166583 113.63658523 248.43298048 115.89943016 C248.4443952 137.1337337 248.43125858 158.36796824 248.40977901 179.60226047 C248.39190723 197.83462826 248.39501109 216.06689419 248.41345406 234.29926014 C248.43484501 255.45595732 248.44329648 276.61259398 248.431005 297.76930046 C248.42973076 300.02396678 248.42847328 302.27863311 248.42723274 304.53329945 C248.42630709 306.19744374 248.42630709 306.19744374 248.42536274 307.89520711 C248.42190451 315.72508645 248.42774835 323.5549275 248.43715096 331.38480091 C248.44835261 340.92275771 248.44536956 350.46058278 248.42402798 359.99852443 C248.41349284 364.86786225 248.40943756 369.73698021 248.42262459 374.60631657 C248.43450348 379.05987185 248.42806082 383.5130025 248.40671438 387.966519 C248.40222912 389.58152966 248.40455746 391.19657585 248.41421753 392.81156385 C248.42630766 394.99989919 248.4139843 397.18676274 248.39533424 399.37502003 C248.39468483 400.59251344 248.39403543 401.81000685 248.39336634 403.064394 C247.89196968 406.13422108 247.89196968 406.13422108 246.13281685 408.52556002 C243.64495239 410.31155004 242.55499846 410.63374901 239.53505039 410.63199902 C238.66505419 410.64119661 237.79505799 410.6503942 236.89869827 410.65987051 C235.94744082 410.64958338 234.99618337 410.63929625 234.01609993 410.6286974 C233.00207794 410.63352623 231.98805596 410.63835506 230.94330603 410.64333022 C227.53522787 410.65462904 224.12789537 410.63726038 220.71985054 410.62006092 C218.28080733 410.62220607 215.84176512 410.6260827 213.40272713 410.63156605 C207.45984876 410.64026736 201.51717251 410.63036659 195.57433265 410.61186545 C188.65646134 410.59110244 181.73863821 410.59123768 174.8207416 410.59221061 C162.47977256 410.59321195 150.13890718 410.57488538 137.79797554 410.54584217 C125.81716206 410.51766098 113.83643981 410.50350088 101.85559273 410.50482655 C101.11756493 410.50490646 100.37953713 410.50498637 99.61914485 410.5050687 C98.51403489 410.50518977 98.51403489 410.50518977 97.38659948 410.50531328 C83.75423888 410.5066923 70.12191711 410.49491747 56.48956908 410.47700685 C51.66487402 410.47096951 46.84018609 410.46884718 42.01548767 410.46794224 C35.52551387 410.46643703 29.03562399 410.45376581 22.54567719 410.43360996 C20.15874255 410.4277523 17.77179682 410.42531077 15.38485527 410.42646503 C12.1367519 410.42744162 8.88892128 410.41618282 5.64085579 410.40164661 C4.21062353 410.40629242 4.21062353 410.40629242 2.75149769 410.41103208 C1.88410923 410.40458319 1.01672078 410.3981343 0.12304783 410.39148998 C-1.0020387 410.38937671 -1.0020387 410.38937671 -2.14985424 410.38722074 C-4.10803032 410.13422108 -4.10803032 410.13422108 -7.10803032 408.13422108 C-8.24489231 404.72363511 -8.23457332 402.12714985 -8.23666477 398.5293026 C-8.23841781 397.85168998 -8.24017085 397.17407736 -8.24197701 396.47593102 C-8.24665575 394.18887629 -8.24416671 391.90188461 -8.24174309 389.61482716 C-8.24361012 387.96516808 -8.24591038 386.31550946 -8.24860841 384.66585153 C-8.25474615 380.11971748 -8.25459051 375.57360176 -8.25341403 371.02746451 C-8.25321053 366.12964156 -8.25872398 361.23182459 -8.2634716 356.3340044 C-8.27178935 346.73375395 -8.27452694 337.13350964 -8.27508398 327.53325588 C-8.27555858 319.7330166 -8.27761049 311.93277935 -8.28078461 304.1325407 C-8.28959397 282.03551541 -8.2942035 259.93849498 -8.29345413 237.84146792 C-8.2933942 236.05339123 -8.2933942 236.05339123 -8.29333305 234.22919178 C-8.29329217 233.03569162 -8.29325129 231.84219146 -8.29320917 230.61252462 C-8.29280254 211.26109557 -8.30237563 191.90968596 -8.31647142 172.55826253 C-8.33081831 152.706089 -8.33774255 132.85392497 -8.33687764 113.00174612 C-8.33654511 101.84909395 -8.33931699 90.69646217 -8.35005569 79.54381466 C-8.3591385 70.04979088 -8.36135427 60.55579673 -8.35454627 51.06177051 C-8.3512699 46.21477059 -8.35126445 41.3678276 -8.35989952 36.52083302 C-8.36771629 32.0877119 -8.36638291 27.6546933 -8.35761539 23.22157484 C-8.3560697 21.61393193 -8.35793638 20.00628155 -8.36347546 18.39864744 C-8.37048546 16.22063272 -8.36528176 14.0429826 -8.35691929 11.8649807 C-8.35713666 10.65302074 -8.35735402 9.44106078 -8.35757798 8.19237477 C-8.11672978 5.2408311 -7.75267836 3.56807745 -6.10803032 1.13422108 C-3.81833824 -0.01062496 -2.54510986 0.00606594 0 0 Z " fill="#203743" transform="translate(136.10803031921387,50.86577892303467)"/>
<path d="M0 0 C7.06227133 3.69311436 11.67355636 8.20661705 15.125 15.375 C16.36365673 19.50163358 16.28769967 23.58134533 16.30200195 27.85620117 C16.31185875 29.13749405 16.31185875 29.13749405 16.32191467 30.44467163 C16.34161004 33.26910496 16.35330276 36.09348517 16.36328125 38.91796875 C16.36735678 39.88496515 16.3714323 40.85196156 16.37563133 41.84826088 C16.39647742 46.9679302 16.41078469 52.08757284 16.42016602 57.20727539 C16.43121905 62.48190413 16.46561052 67.75610971 16.50533772 73.0305891 C16.53154684 77.09795387 16.53986174 81.16521852 16.54344749 85.23266029 C16.5483034 87.17622036 16.55988885 89.11977625 16.57848549 91.0632534 C16.60296545 93.79144709 16.60189573 96.51855513 16.5949707 99.24682617 C16.60778076 100.04040024 16.62059082 100.8339743 16.63378906 101.65159607 C16.56908666 108.69087985 14.10374206 114.10246506 10.5 120.0625 C3.90546005 126.48349943 -3.32480275 129.71365391 -12.4375 129.59375 C-20.44853113 128.87481131 -27.09825853 125.34546762 -32.5625 119.5 C-37.97796335 112.18180629 -39.02049758 106.08101441 -39.05200195 97.16333008 C-39.05857315 96.34960938 -39.06514435 95.53588867 -39.07191467 94.69750977 C-39.09157209 92.01318252 -39.10329409 89.32891106 -39.11328125 86.64453125 C-39.11735678 85.72383032 -39.1214323 84.80312939 -39.12563133 83.85452843 C-39.14646103 78.98008832 -39.16077549 74.1056761 -39.17016602 69.23120117 C-39.18121708 64.21564147 -39.21561091 59.20052702 -39.25533772 54.1851244 C-39.28157491 50.31159176 -39.2898642 46.43816406 -39.29344749 42.5645504 C-39.29829597 40.71671228 -39.30985994 38.86887831 -39.32848549 37.0211277 C-39.53255909 15.43233347 -39.53255909 15.43233347 -31.75 6.5625 C-22.70691652 -1.52262973 -11.62038688 -4.69170646 0 0 Z " fill="#223743" transform="translate(89.875,331.625)"/>
<path d="M0 0 C6.65674362 4.53755557 10.98306686 10.67490341 13.0859375 18.421875 C13.27466141 21.23640738 13.36977453 23.95046871 13.3605957 26.76293945 C13.36570663 27.57841248 13.37081757 28.3938855 13.37608337 29.23406982 C13.3899318 31.91784092 13.38902589 34.60135376 13.38671875 37.28515625 C13.39060889 39.16074213 13.39494421 41.03632714 13.39970398 42.91191101 C13.40715643 46.83998471 13.40688242 50.76796852 13.40161133 54.69604492 C13.39582448 59.71273843 13.4127335 64.7290618 13.435956 69.74569416 C13.45073952 73.61919787 13.45155866 77.49261344 13.44844627 81.36614037 C13.44895738 83.21478189 13.45415526 85.06342863 13.46425819 86.91204262 C13.47669227 89.50581004 13.46978917 92.09886957 13.45825195 94.69262695 C13.46971756 95.82217049 13.46971756 95.82217049 13.48141479 96.97453308 C13.4034574 104.96446636 11.09194591 112.12860728 6.0859375 118.421875 C-0.78150075 124.84143684 -7.33373549 127.79611783 -16.73828125 127.63671875 C-24.37019672 126.88311848 -31.30879651 123.50529297 -36.38671875 117.75390625 C-41.17850407 111.42539678 -42.21403897 105.40620761 -42.22045898 97.63769531 C-42.2287825 96.77506073 -42.23710602 95.91242615 -42.24568176 95.02365112 C-42.26970275 92.18238763 -42.27854475 89.34135415 -42.28515625 86.5 C-42.29412945 84.51470881 -42.30325142 82.52941828 -42.31251526 80.54412842 C-42.32898697 76.38487102 -42.33670191 72.22569393 -42.33959961 68.06640625 C-42.34497767 62.75592638 -42.38264204 57.4462092 -42.42834377 52.13594437 C-42.4581961 48.03506769 -42.46532496 43.93437276 -42.46632576 39.83339691 C-42.47051277 37.87670147 -42.48288556 35.92000473 -42.50384331 33.96341705 C-42.71319636 12.72625316 -42.71319636 12.72625316 -34.97019958 4.30865479 C-25.34838187 -5.08476231 -11.7325296 -6.75854456 0 0 Z " fill="#223743" transform="translate(447.9140625,333.578125)"/>
<path d="M0 0 C5.17544914 4.16711114 7.94499811 8.80397681 9.6875 15.1875 C9.97639718 18.11685713 9.99146515 21.02965817 9.99389648 23.97167969 C10.00222 24.83431427 10.01054352 25.69694885 10.01911926 26.58572388 C10.04314025 29.42698737 10.05198225 32.26802085 10.05859375 35.109375 C10.06756695 37.09466619 10.07668892 39.07995672 10.08595276 41.06524658 C10.10242447 45.22450398 10.11013941 49.38368107 10.11303711 53.54296875 C10.11841517 58.85344862 10.15607954 64.1631658 10.20178127 69.47343063 C10.2316336 73.57430731 10.23876246 77.67500224 10.23976326 81.77597809 C10.24395027 83.73267353 10.25632306 85.68937027 10.27728081 87.64595795 C10.48663386 108.88312184 10.48663386 108.88312184 2.74363708 117.30072021 C-3.37493087 123.27404694 -9.24009214 125.30127619 -17.6875 125.6875 C-26.01439287 125.46583503 -32.03154332 122.50384262 -38.1875 117 C-46.6831328 107.32222141 -45.89092546 96.06865661 -45.80859375 83.93359375 C-45.80874899 82.06372522 -45.81024207 80.19385637 -45.81300354 78.32398987 C-45.8143824 74.41970461 -45.80191469 70.51578899 -45.77905273 66.61157227 C-45.75065002 61.62633656 -45.75341777 56.64171332 -45.76614285 51.65643215 C-45.77312232 47.80006244 -45.76528521 43.94383241 -45.75288582 40.08748055 C-45.74839475 38.25001627 -45.74801385 36.41253688 -45.75195122 34.57507133 C-45.75488636 32.00082909 -45.73824848 29.42740931 -45.71655273 26.85327148 C-45.72105438 26.10652664 -45.72555603 25.3597818 -45.73019409 24.59040833 C-45.61956382 16.62514145 -43.30292523 9.46117743 -38.3125 3.1875 C-27.00829329 -7.37947583 -12.75681304 -9.01733909 0 0 Z " fill="#223743" transform="translate(96.3125,56.8125)"/>
<path d="M0 0 C6.33553299 5.03962852 10.52036318 11.14790364 11.75 19.1875 C11.85744393 21.93810918 11.91730401 24.66425434 11.92700195 27.41503906 C11.93685875 28.63802956 11.93685875 28.63802956 11.94691467 29.88572693 C11.96657003 32.57486068 11.97829279 35.2639388 11.98828125 37.953125 C11.99235678 38.87507408 11.9964323 39.79702316 12.00063133 40.7469101 C12.02145878 45.62668124 12.03577497 50.50642455 12.04516602 55.38623047 C12.05622476 60.41085602 12.09062811 65.43503806 12.13033772 70.45950699 C12.15655269 74.33728833 12.16486217 78.2149647 12.16844749 82.09282684 C12.17330064 83.94428249 12.18487813 85.79573385 12.20348549 87.64710236 C12.37836839 106.20003176 12.37836839 106.20003176 7.75 113.1875 C7.23179687 113.99703125 6.71359375 114.8065625 6.1796875 115.640625 C1.00362577 121.6230079 -4.49306716 125.53436098 -12.46484375 126.62890625 C-21.41657672 126.95271456 -27.89713125 124.92775708 -35 119.5625 C-41.75371559 113.00227019 -43.6700329 106.1307653 -43.88110352 96.93334961 C-43.92612595 93.23473245 -43.90699296 89.53853277 -43.87890625 85.83984375 C-43.87973618 83.85787323 -43.88220026 81.87590279 -43.88621521 79.89393616 C-43.88906338 75.75419221 -43.87446674 71.61499224 -43.84692383 67.4753418 C-43.81282067 62.18731637 -43.81887624 56.90026138 -43.8375864 51.61218929 C-43.84818824 47.52417508 -43.83919004 43.43638407 -43.82420158 39.34839058 C-43.81904419 37.39928412 -43.81947168 35.45015413 -43.82574654 33.50105095 C-43.83123831 30.77094795 -43.8106988 28.0422037 -43.78344727 25.31225586 C-43.78997314 24.51875732 -43.79649902 23.72525879 -43.80322266 22.90771484 C-43.67301478 15.17990052 -40.84995814 7.64009082 -35.25 2.1875 C-23.4762533 -5.98815773 -12.63334925 -7.0455217 0 0 Z " fill="#223743" transform="translate(449.25,55.8125)"/>
<path d="M0 0 C5.64232694 5.39547514 9.98503516 11.17652776 10.39440918 19.1912384 C10.41807077 20.75990523 10.42566397 22.32887031 10.41992188 23.89770508 C10.42839142 24.76048569 10.43686096 25.6232663 10.44558716 26.51219177 C10.46887564 29.34812397 10.46998113 32.18351088 10.46875 35.01953125 C10.47585734 37.00339471 10.48355717 38.98725613 10.49182129 40.97111511 C10.50524803 45.12443762 10.50684335 49.27757011 10.50097656 53.4309082 C10.49508733 58.73355142 10.52564863 64.0352769 10.56609344 69.33774281 C10.5920412 73.43435005 10.59484134 77.53073853 10.59120178 81.62741661 C10.59288692 83.5813089 10.60247065 85.53521196 10.62034607 87.48902321 C10.71653294 99.30331231 10.46153133 107.96605082 2.96484375 117.62109375 C-3.64000244 123.53873051 -10.18851881 126.12380348 -19.1171875 125.93359375 C-27.20014725 124.95664569 -33.55850797 122.13719149 -38.81640625 115.81640625 C-43.60099768 108.97962862 -45.30039573 102.93264753 -45.29052734 94.58300781 C-45.29724457 93.75938751 -45.30396179 92.93576721 -45.31088257 92.08718872 C-45.32981374 89.37577203 -45.33378454 86.6646036 -45.3359375 83.953125 C-45.3423697 82.05751445 -45.34909838 80.16190488 -45.35610962 78.26629639 C-45.36807083 74.29534607 -45.37179172 70.32448267 -45.37060547 66.35351562 C-45.37040255 61.28526647 -45.39768173 56.21757975 -45.43214989 51.14946365 C-45.45447858 47.23388145 -45.45844115 43.31843321 -45.45738602 39.40279388 C-45.45973387 37.53542903 -45.46851106 35.66806003 -45.48405075 33.80075836 C-45.57622262 21.57918494 -45.5031992 10.87854654 -36.62109375 1.46484375 C-26.67506052 -7.52253568 -10.6060276 -8.64289268 0 0 Z " fill="#223743" transform="translate(96,196)"/>
<path d="M0 0 C6.02505226 5.61940518 9.67745418 12.51364949 10.24008179 20.75897217 C10.25790713 22.2581739 10.26495561 23.75752929 10.26318359 25.25683594 C10.26990082 26.08045624 10.27661804 26.90407654 10.28353882 27.75265503 C10.30246999 30.46407172 10.30644079 33.17524015 10.30859375 35.88671875 C10.31502595 37.7823293 10.32175463 39.67793887 10.32876587 41.57354736 C10.34072708 45.54449768 10.34444797 49.51536108 10.34326172 53.48632812 C10.3430588 58.55457728 10.37033798 63.622264 10.40480614 68.6903801 C10.42713483 72.6059623 10.4310974 76.52141054 10.43004227 80.43704987 C10.43239012 82.30441472 10.44116731 84.17178372 10.456707 86.03908539 C10.54909011 98.28866818 10.44358715 108.89667995 1.6171875 118.37109375 C-5.29632083 124.5456285 -12.44861625 125.26888038 -21.4140625 125.17578125 C-29.73946377 124.40174394 -35.25019194 120.32750607 -40.5546875 114.09765625 C-44.51576503 108.02470449 -45.47326859 103.04657691 -45.44726562 95.94213867 C-45.45573517 95.07935806 -45.46420471 94.21657745 -45.47293091 93.32765198 C-45.49621939 90.49171978 -45.49732488 87.65633287 -45.49609375 84.8203125 C-45.50320109 82.83644904 -45.51090092 80.85258762 -45.51916504 78.86872864 C-45.53259178 74.71540613 -45.5341871 70.56227364 -45.52832031 66.40893555 C-45.52243108 61.10629233 -45.55299238 55.80456685 -45.59343719 50.50210094 C-45.61938495 46.4054937 -45.62218509 42.30910522 -45.61854553 38.21242714 C-45.62023067 36.25853485 -45.6298144 34.30463179 -45.64768982 32.35082054 C-45.74387669 20.53653144 -45.48887508 11.87379293 -37.9921875 2.21875 C-26.98216504 -7.64572099 -12.10381279 -8.98449988 0 0 Z " fill="#223743" transform="translate(451.02734375,196.16015625)"/>
<path d="M0 0 C1.75390625 0.78515625 1.75390625 0.78515625 2.75390625 2.78515625 C1.84640625 2.86765625 0.93890625 2.95015625 0.00390625 3.03515625 C-3.70367826 3.89075268 -4.74842136 5.02910396 -7.24609375 7.78515625 C-8.23609375 8.11515625 -9.22609375 8.44515625 -10.24609375 8.78515625 C-10.57609375 12.08515625 -10.90609375 15.38515625 -11.24609375 18.78515625 C-13.62109375 19.41015625 -13.62109375 19.41015625 -16.24609375 19.78515625 C-16.90609375 19.12515625 -17.56609375 18.46515625 -18.24609375 17.78515625 C-18.14701474 13.42567983 -16.91008316 10.55054077 -13.97265625 7.3125 C-10.28654852 4.05171239 -5.1340549 -0.49108351 0 0 Z " fill="#2E3B45" transform="translate(426.24609375,52.21484375)"/>
<path d="M0 0 C0.33 0 0.66 0 1 0 C1.06968359 9.24943028 1.12290413 18.4987694 1.15543652 27.74840546 C1.17105488 32.04395355 1.19222266 36.3393213 1.22631836 40.63476562 C1.25904913 44.7844875 1.27688179 48.93403651 1.28463173 53.08387756 C1.29015072 54.6626304 1.30092777 56.24137438 1.31719017 57.8200531 C1.46782123 73.05635795 1.46782123 73.05635795 -2 80 C-2.33 80 -2.66 80 -3 80 C-3.14239759 76.44006026 -3.19965399 73.56896238 -2.01211548 70.18478394 C-0.90060901 66.68725029 -0.72263623 63.83286734 -0.68115234 60.16845703 C-0.67110672 59.51409164 -0.6610611 58.85972626 -0.65071106 58.18553162 C-0.62005338 56.04296675 -0.60289317 53.9005258 -0.5859375 51.7578125 C-0.56721177 50.26422065 -0.54763731 48.77063922 -0.5272522 47.27706909 C-0.47607322 43.36122806 -0.43637173 39.44535279 -0.39910889 35.52935791 C-0.3589796 31.52729927 -0.30792812 27.52538134 -0.2578125 23.5234375 C-0.16122193 15.68238803 -0.07676365 7.84126853 0 0 Z " fill="#2D383F" transform="translate(105,368)"/>
<path d="M0 0 C-2.18335479 2.49672041 -3.69520276 3.43215437 -6.94140625 4.0625 C-7.68970703 4.21976562 -8.43800781 4.37703125 -9.20898438 4.5390625 C-10.78175692 4.84709098 -12.35467461 5.1543792 -13.92773438 5.4609375 C-18.80853584 6.35427699 -18.80853584 6.35427699 -22 10 C-24.625 10.1875 -24.625 10.1875 -27 10 C-20.77189886 0.09165728 -10.73653022 -0.75727878 0 0 Z " fill="#38444D" transform="translate(85,330)"/>
<path d="M0 0 C0.66 0.33 1.32 0.66 2 1 C1.979375 2.0725 1.95875 3.145 1.9375 4.25 C1.9857984 7.14790424 2.13155885 9.28612141 3 12 C3.66 12 4.32 12 5 12 C4.67 13.32 4.34 14.64 4 16 C0.73991357 12.83047153 -2.22237877 9.60062011 -5 6 C-3.68 5.67 -2.36 5.34 -1 5 C-0.67 3.35 -0.34 1.7 0 0 Z " fill="#33404A" transform="translate(413,440)"/>
<path d="M0 0 C1.625 0.875 1.625 0.875 2.625 2.875 C1.7175 2.9575 0.81 3.04 -0.125 3.125 C-3.44041789 3.58008503 -3.44041789 3.58008503 -5.3125 5.875 C-8.13068809 8.60778845 -10.55145738 8.58088134 -14.375 8.875 C-10.64017998 4.80065088 -5.93492169 -0.3123643 0 0 Z " fill="#404B52" transform="translate(426.375,52.125)"/>
<path d="M0 0 C-0.639375 0.28875 -1.27875 0.5775 -1.9375 0.875 C-4.15206079 1.82823451 -4.15206079 1.82823451 -5 4 C-5.804375 4.144375 -6.60875 4.28875 -7.4375 4.4375 C-10.34440658 4.76502717 -10.34440658 4.76502717 -12 8 C-13.32 7.67 -14.64 7.34 -16 7 C-14.76736878 3.30210635 -13.11497482 2.63534883 -9.7734375 0.85546875 C-6.11443062 -0.9095588 -3.89419292 -1.25170487 0 0 Z " fill="#343F46" transform="translate(76,192)"/>
<path d="M0 0 C0.165 0.61875 0.33 1.2375 0.5 1.875 C2.31837256 4.4510278 3.0687747 4.43590633 6.0625 5.0625 C6.77535156 5.17722656 7.48820312 5.29195313 8.22265625 5.41015625 C8.80917969 5.60480469 9.39570313 5.79945313 10 6 C10.33 6.99 10.66 7.98 11 9 C8.76953125 9.71484375 8.76953125 9.71484375 6 10 C3.76171875 8.56640625 3.76171875 8.56640625 1.6875 6.5625 C0.99011719 5.90378906 0.29273438 5.24507813 -0.42578125 4.56640625 C-0.94527344 4.04949219 -1.46476562 3.53257812 -2 3 C-1.34 2.67 -0.68 2.34 0 2 C0 1.34 0 0.68 0 0 Z " fill="#37424B" transform="translate(413,308)"/>
<path d="M0 0 C1.16161779 2.86578759 0.9946154 4.01630163 0.00390625 7.015625 C-0.70958984 8.61664063 -0.70958984 8.61664063 -1.4375 10.25 C-1.91058594 11.32765625 -2.38367187 12.4053125 -2.87109375 13.515625 C-3.24363281 14.33546875 -3.61617187 15.1553125 -4 16 C-4.33 16 -4.66 16 -5 16 C-5.7013076 9.40770855 -3.49602186 5.50623443 0 0 Z " fill="#3D474E" transform="translate(57,200)"/>
<path d="M0 0 C3.39417765 3.12621626 5.6062718 5.56541027 7 10 C6.34 10.66 5.68 11.32 5 12 C4.67 11.01 4.34 10.02 4 9 C3.34 9.66 2.68 10.32 2 11 C1.34 7.37 0.68 3.74 0 0 Z " fill="#445057" transform="translate(97,58)"/>
<path d="M0 0 C0.33 0 0.66 0 1 0 C1.33266291 6.20970773 0.45029331 10.28264895 -2 16 C-2.33 16 -2.66 16 -3 16 C-3.37851209 10.06997733 -2.10575375 5.52760359 0 0 Z " fill="#3B464C" transform="translate(105,432)"/>
<path d="M0 0 C-1.47692308 5.66153846 -1.47692308 5.66153846 -4.125 7.375 C-5.053125 7.684375 -5.053125 7.684375 -6 8 C-6 7.34 -6 6.68 -6 6 C-6.66 5.67 -7.32 5.34 -8 5 C-2.25 0 -2.25 0 0 0 Z " fill="#37444E" transform="translate(66,55)"/>
<path d="M0 0 C0.625 1.8125 0.625 1.8125 1 4 C0.01 5.485 0.01 5.485 -1 7 C-1.99 7 -2.98 7 -4 7 C-4.33 5.35 -4.66 3.7 -5 2 C-2 0 -2 0 0 0 Z " fill="#334049" transform="translate(456,305)"/>
<path d="M0 0 C0.33 0 0.66 0 1 0 C1.054138 2.24973447 1.09285491 4.49984383 1.125 6.75 C1.14820313 8.00296875 1.17140625 9.2559375 1.1953125 10.546875 C1 14 1 14 -1 18 C-1.33 14.7 -1.66 11.4 -2 8 C-1.67 8 -1.34 8 -1 8 C-0.67 5.36 -0.34 2.72 0 0 Z " fill="#232F38" transform="translate(459,144)"/>
<path d="M0 0 C2.98704569 0.49784095 4.39324263 1.26216175 7 3 C4.89611431 3.05402274 2.79183286 3.09280256 0.6875 3.125 C-1.07013672 3.15980469 -1.07013672 3.15980469 -2.86328125 3.1953125 C-6 3 -6 3 -9 1 C-7.700625 1.020625 -6.40125 1.04125 -5.0625 1.0625 C-3.70834367 1.08399454 -2.35243917 1.07148199 -1 1 C-0.67 0.67 -0.34 0.34 0 0 Z " fill="#4C555C" transform="translate(78,179)"/>
<path d="M0 0 C0.33 0 0.66 0 1 0 C1.05416188 1.60379341 1.09286638 3.20811406 1.125 4.8125 C1.14820313 5.70582031 1.17140625 6.59914063 1.1953125 7.51953125 C1 10 1 10 -1 13 C-1.5625 11.0625 -1.5625 11.0625 -2 9 C-1.67 8.67 -1.34 8.34 -1 8 C-1.185625 7.030625 -1.37125 6.06125 -1.5625 5.0625 C-1.706875 4.051875 -1.85125 3.04125 -2 2 C-1.34 1.34 -0.68 0.68 0 0 Z " fill="#3C444A" transform="translate(459,432)"/>
<path d="M0 0 C0.66 0.33 1.32 0.66 2 1 C0.95125002 3.62187494 0.35068687 4.79371361 -2.125 6.25 C-2.74375 6.4975 -3.3625 6.745 -4 7 C-3.6875 4.625 -3.6875 4.625 -3 2 C-2.01 1.34 -1.02 0.68 0 0 Z " fill="#41494F" transform="translate(98,449)"/>
<path d="M0 0 C0.66 0 1.32 0 2 0 C2 0.99 2 1.98 2 3 C2.66 3 3.32 3 4 3 C3.67 3.99 3.34 4.98 3 6 C3.33 6.33 3.66 6.66 4 7 C3.34 7.66 2.68 8.32 2 9 C0.14223235 5.86501708 -0.20140476 3.62528568 0 0 Z " fill="#3D484F" transform="translate(52,437)"/>
<path d="M0 0 C1.32 0.66 2.64 1.32 4 2 C4 2.99 4 3.98 4 5 C3.34 5 2.68 5 2 5 C1.67 5.66 1.34 6.32 1 7 C-1 4 -1 4 -0.625 1.8125 C-0.41875 1.214375 -0.2125 0.61625 0 0 Z " fill="#34404A" transform="translate(92,55)"/>
<path d="M0 0 C-5.17578125 3.22265625 -5.17578125 3.22265625 -7 4 C-7.99 3.67 -8.98 3.34 -10 3 C-9 1 -9 1 -6.6875 -0.1875 C-3.88010429 -1.03624754 -2.698065 -0.99928333 0 0 Z " fill="#465258" transform="translate(451,316)"/>
<path d="M0 0 C1.32 0 2.64 0 4 0 C4 0.66 4 1.32 4 2 C5.98 2 7.96 2 10 2 C10 2.33 10 2.66 10 3 C5.71 3 1.42 3 -3 3 C-2.01 2.67 -1.02 2.34 0 2 C0 1.34 0 0.68 0 0 Z " fill="#455057" transform="translate(430,179)"/>
<path d="M0 0 C0.66 0.99 1.32 1.98 2 3 C0.625 5 0.625 5 -1 7 C-1.66 7 -2.32 7 -3 7 C-3.33 8.32 -3.66 9.64 -4 11 C-4.33 10.34 -4.66 9.68 -5 9 C-4.00390625 6.8359375 -4.00390625 6.8359375 -2.5625 4.375 C-2.08941406 3.55773437 -1.61632813 2.74046875 -1.12890625 1.8984375 C-0.75636719 1.27195313 -0.38382813 0.64546875 0 0 Z " fill="#49535B" transform="translate(57,61)"/>
<path d="M0 0 C1.98 0 3.96 0 6 0 C3.64722731 2.72426311 1.37503669 3.8141763 -2 5 C-1.34 3.35 -0.68 1.7 0 0 Z " fill="#424D56" transform="translate(445,454)"/>
<path d="M0 0 C-0.639375 0.28875 -1.27875 0.5775 -1.9375 0.875 C-4.15206079 1.82823451 -4.15206079 1.82823451 -5 4 C-8 3 -8 3 -10 1 C-3.71428571 -1.42857143 -3.71428571 -1.42857143 0 0 Z " fill="#3D4750" transform="translate(76,192)"/>
<path d="M0 0 C0.66 0.33 1.32 0.66 2 1 C2 2.98 2 4.96 2 7 C1.01 7.33 0.02 7.66 -1 8 C-1.04241723 5.66705225 -1.04092937 3.33297433 -1 1 C-0.67 0.67 -0.34 0.34 0 0 Z " fill="#27333A" transform="translate(53,71)"/>
<path d="M0 0 C0 0.33 0 0.66 0 1 C-4.51617599 1.07654536 -8.59085217 1.10228696 -13 0 C-13 -0.33 -13 -0.66 -13 -1 C-8.15507803 -2.51403812 -4.7408989 -1.36602172 0 0 Z " fill="#575F65" transform="translate(437,460)"/>
<path d="M0 0 C2.475 0.99 2.475 0.99 5 2 C1.25 5 1.25 5 -1 5 C-0.67 3.35 -0.34 1.7 0 0 Z " fill="#3E464F" transform="translate(89,454)"/>
<path d="M0 0 C0.66 0.66 1.32 1.32 2 2 C-3.14285714 6.42857143 -3.14285714 6.42857143 -7 7 C-6.67 6.01 -6.34 5.02 -6 4 C-5.34 4.33 -4.68 4.66 -4 5 C-4 4.34 -4 3.68 -4 3 C-2 1.375 -2 1.375 0 0 Z " fill="#4B545E" transform="translate(95,313)"/>
<path d="M0 0 C0 0.66 0 1.32 0 2 C-1.98 2.99 -3.96 3.98 -6 5 C-6.66 3.68 -7.32 2.36 -8 1 C-5.07175348 0.02391783 -3.04386724 -0.08226668 0 0 Z " fill="#384350" transform="translate(416,165)"/>
<path d="M0 0 C0.99 0.33 1.98 0.66 3 1 C2.34 2.98 1.68 4.96 1 7 C0.01 7 -0.98 7 -2 7 C-2 3.89448334 -1.4606285 2.64738916 0 0 Z " fill="#454E56" transform="translate(102,162)"/>
<path d="M0 0 C2.475 0.99 2.475 0.99 5 2 C4.67 3.32 4.34 4.64 4 6 C2 4.6875 2 4.6875 0 3 C0 2.01 0 1.02 0 0 Z " fill="#444C52" transform="translate(413,450)"/>
<path d="M0 0 C2.89932357 2.39509338 3.50168276 4.31245243 4 8 C3.34 8 2.68 8 2 8 C-0.1519437 4.77208445 -0.20086443 3.71599191 0 0 Z " fill="#424C53" transform="translate(101,342)"/>
<path d="M0 0 C-0.33 0.66 -0.66 1.32 -1 2 C-0.34 2.33 0.32 2.66 1 3 C-1.31 2.67 -3.62 2.34 -6 2 C-6 1.34 -6 0.68 -6 0 C-3.50907189 -1.24546405 -2.58919267 -0.7767578 0 0 Z " fill="#222F3A" transform="translate(76,178)"/>
</svg>
