<?xml version="1.0" encoding="UTF-8"?>
<svg version="1.1" xmlns="http://www.w3.org/2000/svg" width="512" height="512">
<path d="M0 0 C1.30406925 -0.01564648 1.30406925 -0.01564648 2.63448334 -0.03160906 C3.58505867 -0.02268617 4.535634 -0.01376328 5.51501465 -0.00457001 C6.52833107 -0.01080997 7.54164749 -0.01704993 8.58567047 -0.02347898 C11.99138957 -0.03947225 15.39639923 -0.02677957 18.80212402 -0.01421356 C21.2395469 -0.01963184 23.67696651 -0.02675284 26.11437988 -0.0354538 C32.05356647 -0.05182602 37.99256786 -0.04939346 43.93174934 -0.03780323 C48.75810532 -0.02877414 53.58440461 -0.02754262 58.4107666 -0.0318985 C59.09735934 -0.03251143 59.78395207 -0.03312436 60.49135065 -0.03375587 C61.88609761 -0.03503475 63.28084455 -0.03633161 64.67559147 -0.03764623 C77.75790271 -0.04905575 90.84010189 -0.03593254 103.92239475 -0.01444477 C115.15058981 0.00342659 126.37861945 0.00032259 137.60681152 -0.01811981 C150.64191156 -0.03952001 163.67691335 -0.04795708 176.7120285 -0.03567076 C178.10167947 -0.03439654 179.49133045 -0.03313906 180.88098145 -0.0318985 C181.56473799 -0.0312814 182.24849454 -0.03066429 182.95297098 -0.03002849 C187.77421328 -0.02657302 192.59539332 -0.03240814 197.41662598 -0.04181671 C203.90419263 -0.05419866 210.39152004 -0.04539858 216.87905884 -0.02223969 C219.26396158 -0.01693815 221.64889056 -0.01849087 224.03378296 -0.02729034 C227.2817923 -0.03817201 230.52878911 -0.02457072 233.7767334 -0.00457001 C235.2025964 -0.01795434 235.2025964 -0.01795434 236.65726471 -0.03160906 C237.52664421 -0.02117807 238.39602371 -0.01074708 239.29174805 0 C240.04142601 0.00064941 240.79110397 0.00129882 241.56349945 0.00196791 C244.64107927 0.74299128 245.7823033 1.96688999 247.64587402 4.50336456 C248.14266801 7.59061837 248.14266801 7.59061837 248.13806534 11.3049736 C248.14268072 11.99169195 248.14729609 12.67841029 248.15205133 13.38593829 C248.16268028 15.69827374 248.14466237 18.00950591 248.12689209 20.32178497 C248.12863566 21.9916592 248.13213663 23.66153237 248.13724875 25.33139968 C248.14621466 29.92873754 248.13016302 34.52570434 248.11013651 39.1229949 C248.09289909 44.07729951 248.09870558 49.03158236 248.10174561 53.98590851 C248.10384532 62.57246884 248.0912712 71.15890781 248.06879425 79.74543762 C248.03631733 92.16017292 248.02587164 104.57484939 248.02084228 116.98962256 C248.01208287 137.13062975 247.98544974 157.27157222 247.94763184 177.41254425 C247.91092849 196.98024928 247.88260852 216.54793675 247.86560059 236.11566925 C247.86454969 237.32136457 247.8634988 238.52705989 247.86241606 239.76929143 C247.85719599 245.81777357 247.85214114 251.86625583 247.84716845 257.91473818 C247.80568627 308.11099171 247.73522023 358.30717498 247.64587402 408.50336456 C244.72787839 410.16528964 242.64074906 410.75396804 239.29174805 410.75784016 C238.42236855 410.76367235 237.55298904 410.76950454 236.65726471 410.77551347 C235.70668938 410.77173415 234.75611404 410.76795482 233.7767334 410.76406097 C232.76341698 410.76788652 231.75010056 410.77171207 230.70607758 410.77565354 C227.30054074 410.78599686 223.89517209 410.78198884 220.48962402 410.77802277 C218.05220381 410.78236846 215.61478497 410.78755113 213.17736816 410.79351044 C207.23823355 410.8055318 201.29914087 410.80805013 195.3599987 410.80571017 C190.53365449 410.80392799 185.70732401 410.8056745 180.88098145 410.80993462 C180.19438871 410.81052981 179.50779597 410.81112499 178.8003974 410.81173822 C177.40565045 410.81294995 176.01090352 410.81416409 174.61615658 410.8153806 C161.53388071 410.82625913 148.45163062 410.82409201 135.36935329 410.81799575 C123.39627039 410.81282483 111.4232688 410.82408606 99.45020199 410.84309397 C87.16003346 410.86245596 74.86990343 410.87073135 62.57971954 410.86697072 C55.67815983 410.86505636 48.77666936 410.86756905 41.87512207 410.88168526 C35.38760404 410.89482024 28.90020834 410.89236138 22.41268921 410.87927437 C20.02778062 410.87689951 17.64286069 410.87967557 15.25796509 410.88789749 C12.01012283 410.8982896 8.76283635 410.8903249 5.51501465 410.87758636 C4.56443932 410.88496065 3.61386398 410.89233493 2.63448334 410.89993268 C1.76510384 410.89272614 0.89572433 410.8855196 0 410.87809467 C-0.74967796 410.87814969 -1.49935593 410.8782047 -2.2717514 410.87826139 C-5.11300568 410.36674093 -6.38115696 409.62547037 -8.35412598 407.50336456 C-8.85552263 404.55132395 -8.85552263 404.55132395 -8.85749054 400.85159397 C-8.8633043 400.16891623 -8.86911807 399.48623849 -8.875108 398.78287354 C-8.88979251 396.4782562 -8.8757846 394.17468992 -8.86206055 391.87007904 C-8.86666616 390.20804053 -8.87301679 388.54600608 -8.88096952 386.88398021 C-8.89773291 382.30353647 -8.88938483 377.72342427 -8.87702465 373.14297903 C-8.86800494 368.20832548 -8.88192858 363.27373049 -8.89294434 358.33908844 C-8.91076757 348.66660888 -8.90687256 338.9942532 -8.89529377 329.32176871 C-8.88627413 321.46288149 -8.88502907 313.60402908 -8.88938904 305.74513817 C-8.89000197 304.62822895 -8.8906149 303.51131973 -8.89124641 302.36056478 C-8.89252526 300.0918413 -8.89382211 297.82311782 -8.89513677 295.55439436 C-8.90655385 274.26048369 -8.89341147 252.96664181 -8.87193531 231.67274242 C-8.85406577 213.38862822 -8.85716509 195.1046156 -8.87561035 176.82050323 C-8.89700139 155.60631462 -8.90545252 134.39218636 -8.8931613 113.17798847 C-8.89188705 110.9171279 -8.89062957 108.65626731 -8.88938904 106.39540672 C-8.88877194 105.2829181 -8.88815483 104.17042947 -8.88751903 103.02422907 C-8.88406064 95.17231999 -8.88990504 87.32044908 -8.89930725 79.46854591 C-8.91050911 69.90311666 -8.90752554 60.33781876 -8.88618428 50.77240462 C-8.87564902 45.88889709 -8.87159401 41.0056088 -8.88478088 36.12210274 C-8.89665969 31.65555504 -8.89021723 27.18943075 -8.86887068 22.72292172 C-8.86438535 21.10317056 -8.86671389 19.48338396 -8.87637383 17.8636554 C-8.88846366 15.6689139 -8.87614084 13.47563996 -8.85749054 11.2809763 C-8.85684113 10.05990305 -8.85619172 8.8388298 -8.85552263 7.58075434 C-8.35412598 4.50336456 -8.35412598 4.50336456 -6.59479856 2.11122411 C-4.10920246 0.3276126 -3.01685842 0.00261336 0 0 Z " fill="#9B9A9B" transform="translate(136.3541259765625,50.49663543701172)"/>
<path d="M0 0 C1.76171875 0.7421875 1.76171875 0.7421875 4.76171875 2.3671875 C6.21578125 3.140625 6.21578125 3.140625 7.69921875 3.9296875 C8.72015625 4.64125 8.72015625 4.64125 9.76171875 5.3671875 C9.76171875 6.0271875 9.76171875 6.6871875 9.76171875 7.3671875 C10.68597656 7.75390625 10.68597656 7.75390625 11.62890625 8.1484375 C15.71108431 10.48111068 17.04974072 15.02696865 18.37174988 19.37231445 C20.27939602 27.85143051 20.07073738 36.41518901 20.0625 45.0546875 C20.0663952 46.76521914 20.07073155 48.47574983 20.07548523 50.1862793 C20.08291132 53.7567052 20.08268194 57.32703215 20.07739258 60.89746094 C20.07159399 65.44985977 20.0885559 70.00185226 20.11173725 74.55418396 C20.12653738 78.08201423 20.12733793 81.60974794 20.12422752 85.13760376 C20.12473729 86.81516323 20.12990959 88.4927286 20.14003944 90.17025757 C20.25575051 112.00289673 20.25575051 112.00289673 13.48046875 120.69921875 C7.24266427 126.75272446 0.60200686 130.04450163 -7.98828125 130.6171875 C-15.17667544 130.50868344 -21.64565416 127.81586814 -27.23828125 123.3671875 C-33.73339803 116.56277945 -36.85379049 109.9572247 -36.75585938 100.52368164 C-36.76286865 99.67865585 -36.76987793 98.83363007 -36.77709961 97.96299744 C-36.79458643 95.19243704 -36.78308924 92.42291305 -36.76953125 89.65234375 C-36.7722291 87.71235459 -36.77611395 85.77236676 -36.78112793 83.8323822 C-36.78701059 79.77492342 -36.77850073 75.71781795 -36.75976562 71.66040039 C-36.73699218 66.47771305 -36.75009693 61.29585514 -36.77405548 56.11319828 C-36.78855984 52.1092665 -36.78388599 48.10552897 -36.77354431 44.10159111 C-36.77088904 42.1915521 -36.77410426 40.28149506 -36.78346252 38.37147713 C-36.79370317 35.69387729 -36.77802263 33.01759075 -36.75585938 30.34008789 C-36.7639563 29.56214874 -36.77205322 28.78420959 -36.78039551 27.98269653 C-36.64834754 19.30472793 -32.9909642 12.44838439 -27.1796875 6.16015625 C-18.93370342 -1.45535018 -10.91417398 -3.0856827 0 0 Z " fill="#9B9A9B" transform="translate(87.23828125,330.6328125)"/>
<path d="M0 0 C7.61382881 4.26222643 12.75674694 9.92187796 15.3515625 18.31640625 C16.27404279 24.89637163 16.03198724 31.59929805 15.98046875 38.2265625 C15.98129874 40.16369256 15.98376302 42.10082253 15.98777771 44.03794861 C15.99062547 48.08354065 15.97603339 52.12857593 15.94848633 56.17407227 C15.91438263 61.34103658 15.92043926 66.50700774 15.9391489 71.67401981 C15.94975225 75.66938961 15.9407512 79.66453108 15.92576408 83.65987968 C15.92060782 85.56432859 15.92103278 87.4688016 15.92730904 89.37324715 C15.93280272 92.04109541 15.91225562 94.70755452 15.88500977 97.37524414 C15.89153564 98.1500412 15.89806152 98.92483826 15.90478516 99.72311401 C15.75796694 108.24257937 12.18349848 115.37473678 6.3828125 121.51953125 C-0.22547123 127.3653207 -6.77945251 129.09052255 -15.51953125 128.75 C-21.35906118 127.94077675 -25.80499497 125.54536794 -30.6484375 122.31640625 C-30.6484375 121.65640625 -30.6484375 120.99640625 -30.6484375 120.31640625 C-31.6384375 119.98640625 -32.6284375 119.65640625 -33.6484375 119.31640625 C-39.56662382 113.21327661 -41.10307929 106.16447556 -41.05249023 97.99536133 C-41.05935349 97.20552856 -41.06621674 96.4156958 -41.07328796 95.60192871 C-41.09145876 93.01307748 -41.08773062 90.42483831 -41.08203125 87.8359375 C-41.0865995 86.0176321 -41.09190698 84.19932843 -41.09791565 82.38102722 C-41.10682909 78.57580541 -41.10444591 74.77079364 -41.09448242 70.96557617 C-41.08302743 66.12183625 -41.10315986 61.27882916 -41.13239956 56.43518543 C-41.15087468 52.6798807 -41.15044619 48.92474765 -41.14476204 45.1694088 C-41.14461003 43.38547428 -41.15055335 41.60152722 -41.16305351 39.81763649 C-41.30751849 15.81246397 -41.30751849 15.81246397 -34.0234375 6.50390625 C-31.6484375 4.31640625 -31.6484375 4.31640625 -29.6484375 4.31640625 C-29.6484375 3.65640625 -29.6484375 2.99640625 -29.6484375 2.31640625 C-19.463987 -3.19935031 -10.81451932 -4.92661435 0 0 Z " fill="#9B999A" transform="translate(445.6484375,53.68359375)"/>
<path d="M0 0 C7.46525408 6.32202987 8.56810265 12.77379126 9.6875 22.1875 C9.95265195 27.70163636 9.94608594 33.20339524 9.91796875 38.72265625 C9.91677275 40.29341087 9.91632467 41.86416621 9.9165802 43.43492126 C9.91502718 46.70674196 9.90682918 49.97845142 9.89331055 53.25024414 C9.87630863 57.41449235 9.87249746 61.57861912 9.87325573 65.74289799 C9.87298202 68.97994617 9.86746893 72.21696857 9.86025429 75.4540081 C9.85710441 76.98838545 9.85510898 78.52276567 9.85436058 80.05714607 C9.82663243 107.17698246 9.82663243 107.17698246 0.66015625 117.35546875 C-6.08731245 123.62192978 -14.51608272 124.89259082 -23.4375 124.66015625 C-31.56844615 123.66837754 -36.98255063 118.13469313 -42.05859375 112.05859375 C-45.85899822 106.38758522 -46.759566 102.07619163 -46.74829102 95.41918945 C-46.75836685 94.55816116 -46.76844269 93.69713287 -46.77882385 92.81001282 C-46.80723601 89.97346882 -46.81317763 87.13745857 -46.81640625 84.30078125 C-46.82605435 82.31788417 -46.83614734 80.33498922 -46.84666443 78.35209656 C-46.86461062 74.1970017 -46.87018724 70.04209376 -46.8684082 65.88696289 C-46.86810397 60.5853763 -46.90900302 55.28500089 -46.96072483 49.98370075 C-46.99423335 45.88704525 -47.00016128 41.79067762 -46.99857903 37.69389915 C-47.00209928 35.74081447 -47.01525659 33.78772074 -47.03857613 31.83477211 C-47.16651976 20.01006852 -47.07995252 10.34089023 -38.47486877 1.24507141 C-26.86006931 -9.63751966 -12.18397166 -9.23509736 0 0 Z " fill="#9B9A9B" transform="translate(97.3125,57.8125)"/>
<path d="M0 0 C8.01066824 4.61852859 13.15780773 11.18673591 15.6875 20.0625 C16.07643148 22.96391662 16.09896376 25.81389796 16.07568359 28.73828125 C16.08094055 29.56540619 16.08619751 30.39253113 16.09161377 31.24472046 C16.10472306 33.95501075 16.09610813 36.66470464 16.0859375 39.375 C16.08796084 41.27254345 16.09087445 43.17008615 16.09463501 45.06762695 C16.09904608 49.03506916 16.09266659 53.00230807 16.07861328 56.96972656 C16.06152218 62.04029018 16.07136989 67.1103773 16.08933067 72.18092346 C16.10020144 76.09643099 16.09670708 80.01182664 16.0889473 83.92733765 C16.08695439 85.79633644 16.08937242 87.66534558 16.09638596 89.53433228 C16.10405484 92.15206587 16.09232077 94.76904123 16.07568359 97.38671875 C16.08175629 98.1495517 16.08782898 98.91238464 16.09408569 99.69833374 C16.00326 107.46144347 13.4907103 113.8869439 8.6875 120.0625 C1.82006175 126.48206184 -4.73217299 129.43674283 -14.13671875 129.27734375 C-21.76863422 128.52374348 -28.70723401 125.14591797 -33.78515625 119.39453125 C-38.1940628 113.57168966 -39.53922905 107.91599382 -39.92700195 100.63378906 C-39.96452985 99.93596439 -40.00205774 99.23813972 -40.04072285 98.51916885 C-40.40066121 91.32240376 -40.47420331 84.12685265 -40.48046875 76.921875 C-40.48369821 75.53859425 -40.4870634 74.15531381 -40.49055481 72.77203369 C-40.49646835 69.90498055 -40.49840247 67.03795722 -40.49780273 64.17089844 C-40.49770063 60.53144381 -40.51143778 56.8921821 -40.52857494 53.25277328 C-40.53978062 50.40772653 -40.54171946 47.56272554 -40.54119301 44.717659 C-40.54291403 42.73491461 -40.55368007 40.75218448 -40.56474304 38.76947021 C-40.53271105 25.97617611 -39.82572165 14.57431546 -31.0625 4.671875 C-22.92303796 -2.81352312 -9.9668328 -4.5036465 0 0 Z " fill="#9B999A" transform="translate(445.3125,331.9375)"/>
<path d="M0 0 C4.43594055 3.49104914 8.85344627 7.79283003 11.40234375 12.890625 C11.52209792 15.97612937 11.58077684 19.0397137 11.59521484 22.1262207 C11.60748108 23.56301682 11.60748108 23.56301682 11.61999512 25.02883911 C11.64486785 28.20802174 11.66136932 31.38715969 11.67578125 34.56640625 C11.68110493 35.65055502 11.6864286 36.73470379 11.6919136 37.85170555 C11.71865242 43.58919951 11.73802563 49.32667165 11.75244141 55.06420898 C11.76909763 60.99626118 11.81388193 66.92775871 11.86481285 72.85960102 C11.8984351 77.41577304 11.91001333 81.97181256 11.91566849 86.52809715 C11.92239405 88.71501089 11.93764977 90.90191551 11.9615593 93.08870888 C11.99310735 96.14855051 11.99326297 99.20688476 11.98583984 102.2668457 C12.00224518 103.17145035 12.01865051 104.07605499 12.03555298 105.0080719 C11.99121357 109.46938921 11.8880481 111.28494662 9.01113892 114.8724823 C7.71978531 115.87146294 7.71978531 115.87146294 6.40234375 116.890625 C5.63535156 117.52226562 4.86835937 118.15390625 4.078125 118.8046875 C-3.90535052 124.58445986 -11.22266937 127.90123633 -21.20703125 126.47265625 C-26.46769846 125.19187289 -31.59267181 122.56186074 -35.59765625 118.890625 C-35.59765625 118.230625 -35.59765625 117.570625 -35.59765625 116.890625 C-36.25765625 116.890625 -36.91765625 116.890625 -37.59765625 116.890625 C-38.41603067 115.47734371 -39.22711844 114.05984154 -40.03515625 112.640625 C-40.48761719 111.85171875 -40.94007812 111.0628125 -41.40625 110.25 C-43.7971726 105.51518934 -43.75116265 101.0045161 -43.75878906 95.77661133 C-43.76375397 94.96143036 -43.76871887 94.14624939 -43.77383423 93.30636597 C-43.78842767 90.61178742 -43.79525413 87.91726781 -43.80078125 85.22265625 C-43.80653622 83.34421284 -43.81229391 81.46576944 -43.8180542 79.58732605 C-43.82855701 75.64732592 -43.83440399 71.70734614 -43.83789062 67.76733398 C-43.8433655 62.73491373 -43.86737503 57.70276537 -43.89586258 52.67043018 C-43.91455043 48.78835787 -43.91969789 44.90635016 -43.9212265 41.02423668 C-43.92424107 39.17000535 -43.93222893 37.31577483 -43.94541168 35.46158791 C-43.96259667 32.85805649 -43.96056155 30.2551775 -43.95410156 27.65161133 C-43.96331635 26.89544022 -43.97253113 26.1392691 -43.98202515 25.36018372 C-43.92090933 17.4392207 -41.67135892 10.06134446 -36.59765625 3.890625 C-26.15435415 -6.20621685 -12.14412486 -7.90423292 0 0 Z " fill="#9B999A" transform="translate(94.59765625,195.109375)"/>
<path d="M0 0 C6.84900078 4.83190737 9.92869094 10.77435407 12.53515625 18.59375 C12.6570979 21.31368474 12.72365606 24.00925088 12.74389648 26.73022461 C12.75857216 27.97480942 12.75857216 27.97480942 12.77354431 29.24453735 C12.80349263 31.99503994 12.82489012 34.74549356 12.84375 37.49609375 C12.85032183 38.43819765 12.85689365 39.38030155 12.86366463 40.35095406 C12.89626638 45.34438704 12.92070726 50.33779871 12.94018555 55.33129883 C12.95794601 59.44880622 12.99268018 63.56562197 13.04272461 67.68286133 C13.10321777 72.66607153 13.13370212 77.64864419 13.14335823 82.63220406 C13.15187004 84.52309142 13.17058137 86.41396374 13.20010185 88.30463982 C13.37468147 100.12904679 13.09898719 110.291106 4.72972107 119.60240173 C-0.76973196 124.83829399 -7.36506266 127.10238505 -14.84375 127.66015625 C-22.54927548 127.46493429 -29.57404607 124.42718949 -35.0546875 119.02734375 C-40.67968232 112.87973328 -42.89872193 106.97078208 -43.01171875 98.6640625 C-43.04308678 97.51265274 -43.04308678 97.51265274 -43.0750885 96.33798218 C-43.1381329 93.79829295 -43.17807088 91.25894738 -43.21484375 88.71875 C-43.23130951 87.8414624 -43.24777527 86.9641748 -43.26473999 86.06030273 C-43.53509406 71.49094948 -43.52219784 56.91824083 -43.32067871 42.3480835 C-43.29195655 40.19113039 -43.26901978 38.03409193 -43.2520752 35.87701416 C-43.22456421 32.83398028 -43.17072466 29.79251776 -43.109375 26.75 C-43.10494888 25.85469574 -43.10052277 24.95939148 -43.09596252 24.03695679 C-42.90439705 16.9267375 -41.04491525 10.9992135 -36.71875 5.2890625 C-25.88513716 -4.76893372 -13.29771298 -7.58665083 0 0 Z " fill="#9B9A9A" transform="translate(448.46484375,194.40625)"/>
<path d="M0 0 C2.66666667 2.66666667 5.33333333 5.33333333 8 8 C7.67 8.66 7.34 9.32 7 10 C4.66666667 7.66666667 2.33333333 5.33333333 0 3 C0 2.01 0 1.02 0 0 Z " fill="#7F8081" transform="translate(409,445)"/>
<path d="M0 0 C2.0625 0.4375 2.0625 0.4375 4 1 C1 3 1 3 -1 3 C-1 3.99 -1 4.98 -1 6 C-1.66 6 -2.32 6 -3 6 C-3.33 6.99 -3.66 7.98 -4 9 C-4.33 8.34 -4.66 7.68 -5 7 C-1.125 1.125 -1.125 1.125 0 0 Z " fill="#86878A" transform="translate(59,59)"/>
<path d="M0 0 C4.87685861 1.35468295 6.48592381 3.71675909 9 8 C7.0625 7.1875 7.0625 7.1875 5 6 C4.67 5.01 4.34 4.02 4 3 C1.99983534 1.79117904 1.99983534 1.79117904 0 1 C0 0.67 0 0.34 0 0 Z " fill="#919293" transform="translate(448,196)"/>
</svg>
